<svg xmlns="http://www.w3.org/2000/svg" style="display:none">
<defs>

<!-- ============ DEFENDER (BLUE) ICONS ============ -->

<!-- Critical Server (objective) -->
<symbol id="icon-server" viewBox="0 0 64 64">
  <rect x="14" y="10" width="36" height="14" rx="2" fill="none" stroke="currentColor" stroke-width="3"/>
  <rect x="14" y="26" width="36" height="14" rx="2" fill="none" stroke="currentColor" stroke-width="3"/>
  <rect x="14" y="42" width="36" height="14" rx="2" fill="none" stroke="currentColor" stroke-width="3"/>
  <circle cx="20" cy="17" r="2" fill="currentColor"/>
  <circle cx="20" cy="33" r="2" fill="currentColor"/>
  <circle cx="20" cy="49" r="2" fill="currentColor"/>
  <path d="M28 17h16M28 33h16M28 49h16" stroke="currentColor" stroke-width="2" stroke-linecap="round"/>
</symbol>

<!-- Firewall -->
<symbol id="icon-firewall" viewBox="0 0 64 64">
  <path d="M32 6 12 14v16c0 14 8.4 24.6 20 30 11.6-5.4 20-16 20-30V14L32 6Z" fill="none" stroke="currentColor" stroke-width="3" stroke-linejoin="round"/>
  <path d="M22 26h20M22 33h20M22 40h20" stroke="currentColor" stroke-width="2.5" stroke-linecap="round"/>
  <path d="M24 26v14M30 26v14M36 26v14M42 26v14" stroke="currentColor" stroke-width="1.5" opacity="0.6"/>
</symbol>

<!-- Honeypot -->
<symbol id="icon-honeypot" viewBox="0 0 64 64">
  <path d="M20 24c0-8 5.4-14 12-14s12 6 12 14" fill="none" stroke="currentColor" stroke-width="3" stroke-linecap="round"/>
  <path d="M16 24h32l-3 26a5 5 0 0 1-5 4.4H24a5 5 0 0 1-5-4.4l-3-26Z" fill="none" stroke="currentColor" stroke-width="3" stroke-linejoin="round"/>
  <path d="M16 24h32" stroke="currentColor" stroke-width="3"/>
  <path d="M24 32h16M22 40h20" stroke="currentColor" stroke-width="2" opacity="0.7"/>
  <circle cx="32" cy="46" r="2" fill="currentColor"/>
</symbol>

<!-- CISO -->
<symbol id="icon-ciso" viewBox="0 0 64 64">
  <path d="M32 6 50 14v14c0 14-8 24-18 30C22 52 14 42 14 28V14L32 6Z" fill="none" stroke="currentColor" stroke-width="3" stroke-linejoin="round"/>
  <path d="M24 32l6 6 12-12" stroke="currentColor" stroke-width="3.5" stroke-linecap="round" stroke-linejoin="round" fill="none"/>
</symbol>

<!-- SOC Lead -->
<symbol id="icon-soc" viewBox="0 0 64 64">
  <circle cx="32" cy="32" r="22" fill="none" stroke="currentColor" stroke-width="3"/>
  <circle cx="32" cy="32" r="6" fill="currentColor"/>
  <path d="M32 10v8M32 46v8M10 32h8M46 32h8" stroke="currentColor" stroke-width="3" stroke-linecap="round"/>
  <circle cx="32" cy="32" r="14" fill="none" stroke="currentColor" stroke-width="1.5" opacity="0.5"/>
</symbol>

<!-- Incident Responder -->
<symbol id="icon-responder" viewBox="0 0 64 64">
  <circle cx="32" cy="18" r="8" fill="none" stroke="currentColor" stroke-width="3"/>
  <path d="M16 54c0-11 7-18 16-18s16 7 16 18" fill="none" stroke="currentColor" stroke-width="3" stroke-linecap="round"/>
  <path d="M32 30v14M25 37h14" stroke="currentColor" stroke-width="3" stroke-linecap="round"/>
</symbol>

<!-- Security Engineer -->
<symbol id="icon-engineer" viewBox="0 0 64 64">
  <circle cx="26" cy="38" r="10" fill="none" stroke="currentColor" stroke-width="3"/>
  <path d="M33 31l14-14M47 17l4-4M40 24l4 4" stroke="currentColor" stroke-width="3" stroke-linecap="round"/>
  <circle cx="26" cy="38" r="3.5" fill="currentColor"/>
</symbol>

<!-- Sysadmin -->
<symbol id="icon-sysadmin" viewBox="0 0 64 64">
  <rect x="12" y="16" width="40" height="26" rx="2" fill="none" stroke="currentColor" stroke-width="3"/>
  <path d="M22 50h20M32 42v8" stroke="currentColor" stroke-width="3" stroke-linecap="round"/>
  <path d="M20 24h6M20 30h14" stroke="currentColor" stroke-width="2.5" stroke-linecap="round" opacity="0.8"/>
  <circle cx="40" cy="27" r="5" fill="none" stroke="currentColor" stroke-width="2"/>
</symbol>

<!-- SOC Analyst -->
<symbol id="icon-analyst" viewBox="0 0 64 64">
  <rect x="10" y="14" width="44" height="28" rx="2" fill="none" stroke="currentColor" stroke-width="3"/>
  <path d="M18 22l8 8-8 8M32 38h14" stroke="currentColor" stroke-width="2.5" stroke-linecap="round" stroke-linejoin="round" fill="none"/>
  <path d="M24 50h16" stroke="currentColor" stroke-width="3" stroke-linecap="round"/>
</symbol>

<!-- Threat Intel -->
<symbol id="icon-intel" viewBox="0 0 64 64">
  <circle cx="28" cy="28" r="14" fill="none" stroke="currentColor" stroke-width="3"/>
  <path d="M38 38l12 12" stroke="currentColor" stroke-width="3.5" stroke-linecap="round"/>
  <path d="M28 20v8l6 4" stroke="currentColor" stroke-width="2.5" stroke-linecap="round" stroke-linejoin="round" fill="none"/>
</symbol>

<!-- ============ ATTACKER (RED) ICONS ============ -->

<!-- Zero-Day Exploit -->
<symbol id="icon-exploit" viewBox="0 0 64 64">
  <path d="M34 4 14 36h14l-4 24 22-32H32l2-24Z" fill="none" stroke="currentColor" stroke-width="3" stroke-linejoin="round"/>
</symbol>

<!-- APT Operator -->
<symbol id="icon-apt" viewBox="0 0 64 64">
  <path d="M32 6 50 14v14c0 14-8 24-18 30C22 52 14 42 14 28V14L32 6Z" fill="none" stroke="currentColor" stroke-width="3" stroke-linejoin="round"/>
  <path d="M24 26l16 16M40 26l-16 16" stroke="currentColor" stroke-width="3" stroke-linecap="round"/>
</symbol>

<!-- Botnet Master -->
<symbol id="icon-botmaster" viewBox="0 0 64 64">
  <circle cx="32" cy="16" r="6" fill="currentColor"/>
  <circle cx="14" cy="46" r="6" fill="none" stroke="currentColor" stroke-width="3"/>
  <circle cx="32" cy="46" r="6" fill="none" stroke="currentColor" stroke-width="3"/>
  <circle cx="50" cy="46" r="6" fill="none" stroke="currentColor" stroke-width="3"/>
  <path d="M32 22v12M26 40l-8-6M38 40l8-6" stroke="currentColor" stroke-width="2.5"/>
</symbol>

<!-- Ransomware Op -->
<symbol id="icon-ransomware" viewBox="0 0 64 64">
  <rect x="16" y="28" width="32" height="24" rx="3" fill="none" stroke="currentColor" stroke-width="3"/>
  <path d="M22 28v-6a10 10 0 0 1 20 0v6" fill="none" stroke="currentColor" stroke-width="3"/>
  <circle cx="32" cy="38" r="4" fill="currentColor"/>
  <path d="M32 42v6" stroke="currentColor" stroke-width="3" stroke-linecap="round"/>
</symbol>

<!-- Insider Threat -->
<symbol id="icon-insider" viewBox="0 0 64 64">
  <circle cx="32" cy="20" r="9" fill="none" stroke="currentColor" stroke-width="3"/>
  <path d="M16 54c0-12 7.5-19 16-19s16 7 16 19" fill="none" stroke="currentColor" stroke-width="3" stroke-linecap="round"/>
  <path d="M24 20a8 8 0 0 1 16 0" stroke="currentColor" stroke-width="2" stroke-dasharray="2 3" opacity="0.8"/>
  <path d="M22 38l20 10M42 38l-20 10" stroke="currentColor" stroke-width="2" opacity="0.6"/>
</symbol>

<!-- Social Engineer -->
<symbol id="icon-socialeng" viewBox="0 0 64 64">
  <circle cx="22" cy="22" r="8" fill="none" stroke="currentColor" stroke-width="3"/>
  <circle cx="42" cy="22" r="8" fill="none" stroke="currentColor" stroke-width="3" opacity="0.5"/>
  <path d="M10 50c0-9 5.4-15 12-15s12 6 12 15" fill="none" stroke="currentColor" stroke-width="3" stroke-linecap="round"/>
  <path d="M30 50c0-7 4-12 9-13" fill="none" stroke="currentColor" stroke-width="2.5" stroke-linecap="round" opacity="0.5"/>
</symbol>

<!-- Phishing Crew -->
<symbol id="icon-phisher" viewBox="0 0 64 64">
  <rect x="10" y="18" width="44" height="30" rx="3" fill="none" stroke="currentColor" stroke-width="3"/>
  <path d="M10 20l22 18 22-18" stroke="currentColor" stroke-width="3" stroke-linecap="round" stroke-linejoin="round" fill="none"/>
  <path d="M44 36l8 10" stroke="currentColor" stroke-width="2.5" stroke-linecap="round"/>
  <circle cx="46" cy="38" r="2" fill="currentColor"/>
</symbol>

<!-- Recon Scanner -->
<symbol id="icon-scanner" viewBox="0 0 64 64">
  <circle cx="28" cy="28" r="14" fill="none" stroke="currentColor" stroke-width="3"/>
  <path d="M38 38l12 12" stroke="currentColor" stroke-width="3.5" stroke-linecap="round"/>
  <circle cx="28" cy="28" r="6" fill="none" stroke="currentColor" stroke-width="1.5" opacity="0.6"/>
  <path d="M28 14v4M28 38v4M14 28h4M38 28h4" stroke="currentColor" stroke-width="1.5" opacity="0.5"/>
</symbol>

<!-- ============ UI / MISC ICONS ============ -->

<!-- Locked / unrevealed piece (fog of war) -->
<symbol id="icon-locked" viewBox="0 0 64 64">
  <rect x="16" y="28" width="32" height="24" rx="3" fill="none" stroke="currentColor" stroke-width="3"/>
  <path d="M22 28v-6a10 10 0 0 1 20 0v6" fill="none" stroke="currentColor" stroke-width="3"/>
  <circle cx="32" cy="38" r="3.5" fill="currentColor"/>
  <path d="M32 42v5" stroke="currentColor" stroke-width="3" stroke-linecap="round"/>
</symbol>

<!-- Shield (defender generic) -->
<symbol id="icon-shield" viewBox="0 0 64 64">
  <path d="M32 6 50 14v14c0 14-8 24-18 30C22 52 14 42 14 28V14L32 6Z" fill="none" stroke="currentColor" stroke-width="3" stroke-linejoin="round"/>
</symbol>

<!-- Skull (attacker generic) -->
<symbol id="icon-skull" viewBox="0 0 64 64">
  <path d="M32 8c-11 0-18 8-18 18 0 7 3 11 6 14v8h6v-6h4v6h4v-6h4v6h6v-8c3-3 6-7 6-14 0-10-7-18-18-18Z" fill="none" stroke="currentColor" stroke-width="3" stroke-linejoin="round"/>
  <circle cx="25" cy="26" r="3" fill="currentColor"/>
  <circle cx="39" cy="26" r="3" fill="currentColor"/>
</symbol>

</defs>
</svg>
